<svg width="200" height="200" viewBox="0 0 200 200" fill="none" xmlns="http://www.w3.org/2000/svg">
<rect x="2.5" y="2.5" width="195" height="195" fill="#224881" stroke="#A4780A" stroke-width="5"/>
<path d="M78.3333 79C77.3606 79 76.5289 79.6999 76.3627 80.6584L59.0294 180.658C58.9286 181.24 59.0898 181.836 59.4698 182.288C59.8498 182.739 60.4098 183 61 183H139C139.59 183 140.15 182.739 140.53 182.288C140.91 181.836 141.071 181.24 140.971 180.658L123.637 80.6584C123.471 79.6999 122.639 79 121.667 79H78.3333Z" stroke="#A4780A" stroke-width="4" stroke-linejoin="round"/>
<path d="M77.0172 66C76.0175 21.4195 119.001 12.1319 123 66" stroke="#A4780A" stroke-width="4"/>
<line x1="79" y1="45" x2="119" y2="45" stroke="#A4780A" stroke-width="4"/>
<line x1="77" y1="64" x2="123" y2="64" stroke="#A4780A" stroke-width="4"/>
<path d="M83.9238 164.967L84.9629 172.092L86.4844 165.672L97.1719 127.969H103.184L113.611 165.672L115.096 172.203L116.246 164.93L124.633 127.969H131.795L118.695 182H112.201L101.068 142.627L100.215 138.508L99.3613 142.627L87.8203 182H81.3262L68.2637 127.969H75.3887L83.9238 164.967Z" fill="#A4780A"/>
<rect x="59" y="64" width="82" height="13" rx="6.5" stroke="#A4780A" stroke-width="4" stroke-linejoin="round"/>
<line x1="99.5" y1="29" x2="99.5" y2="18" stroke="#A4780A" stroke-width="5"/>
</svg>
